<?xml version="1.0" encoding="UTF-8"?>
<!DOCTYPE svg PUBLIC "-//W3C//DTD SVG 1.1//EN" "http://www.w3.org/Graphics/SVG/1.1/DTD/svg11.dtd">
<!-- Creator: CorelDRAW 2018 (64 Bit) -->
<svg xmlns="http://www.w3.org/2000/svg" xml:space="preserve" width="25.544mm" height="25.544mm" version="1.1" style="shape-rendering:geometricPrecision; text-rendering:geometricPrecision; image-rendering:optimizeQuality; fill-rule:evenodd; clip-rule:evenodd"
viewBox="0 0 2474.5 2474.5"
 xmlns:xlink="http://www.w3.org/1999/xlink">
 <defs>
  <style type="text/css">
   <![CDATA[
    .fil1 {fill:none}
    .fil0 {fill:black}
   ]]>
  </style>
 </defs>
 <g id="Camada_x0020_1">
  <metadata id="CorelCorpID_0Corel-Layer"/>
  <path class="fil0" d="M1655.49 530.49l179.02 179.03 5.77 6.86 5.02 7.58 4.22 8.24 3.38 8.86 2.47 9.45 1.52 9.99 0.52 10.49 0 1115.57 -0.52 10.68 -1.52 10.6 -2.47 10.42 -3.38 10.21 -4.22 9.91 -5.02 9.57 -5.77 9.14 -6.46 8.68 -7.11 8.13 -7.7 7.53 -8.24 6.85 -8.73 6.12 -9.18 5.33 -9.55 4.48 -9.91 3.54 -10.18 2.56 -682.31 135.38 -10.18 1.48 -9.91 0.39 -9.56 -0.68 -9.17 -1.69 -8.73 -2.65 -8.24 -3.58 -7.7 -4.47 -7.11 -5.31 -6.47 -6.1 -179.03 -179.03 -175.9 -175.9c-1.07,-1.01 -2.09,-2.03 -3.1,-3.1 -14.3,-15.14 -22.93,-36.46 -22.93,-61.48l0 -1115.57c0,-57.16 45,-112.85 99.99,-123.76l682.31 -135.38c30.93,-6.13 58.7,3.15 77.07,22.63l179.03 179.02zm-75.22 -13.13l-682.32 135.38c-25.2,5 -48.19,20.37 -64.93,41.1 -16.78,20.77 -27.21,46.84 -27.21,73.16l0 1115.57c0,6.27 0.59,12.25 1.7,17.87 3.5,17.68 12.21,32.33 24.39,42.48 12.15,10.12 27.91,15.92 45.52,15.92 5.48,0 11.13,-0.54 16.83,-1.68l682.32 -135.38c25.19,-4.99 48.19,-20.37 64.93,-41.09 16.78,-20.77 27.2,-46.84 27.2,-73.17l0 -1115.57c0,-6.29 -0.59,-12.29 -1.7,-17.92 -3.5,-17.64 -12.21,-32.28 -24.39,-42.43 -12.15,-10.12 -27.9,-15.92 -45.51,-15.92 -5.48,0 -11.12,0.54 -16.83,1.68zm-45.4 786.27l-1.49 0.3c-2.64,0.47 -5.11,0.72 -7.38,0.72 -9.05,0 -17.24,-3.11 -23.61,-8.49 -6.31,-5.32 -10.75,-12.9 -12.39,-21.88 -0.47,-2.44 -0.72,-5.02 -0.72,-7.65l0 -153.81c0,-11.57 4.53,-22.87 11.84,-31.74 6.98,-8.48 16.63,-14.84 27.36,-17.19l1.51 -0.31c2.63,-0.47 5.11,-0.72 7.36,-0.72 9.03,0 17.23,3.11 23.6,8.49 6.31,5.32 10.75,12.9 12.39,21.89 0.47,2.45 0.72,5.03 0.72,7.65l0 153.81c0,11.57 -4.54,22.86 -11.83,31.74 -6.97,8.49 -16.64,14.86 -27.36,17.19z"/>
  <rect class="fil1" width="2474.5" height="2474.5"/>
 </g>
</svg>
