<svg width="242.193" height="354.844" viewBox="0 0 64.08 93.886" xml:space="preserve" xmlns="http://www.w3.org/2000/svg">
    <path style="color:#000;opacity:1;fill:#71717a;fill-opacity:1;stroke-linecap:round;stroke-linejoin:round;-inkscape-stroke:none" d="M272.15 15.783a2.25 2.25 0 0 0-1.836.953l-3.07 4.358a2.2 2.2 0 0 0-.267-.071h-31.43c-5.777 0-10.497 4.72-10.497 10.498v57.076c0 5.778 4.72 10.498 10.498 10.498h4.23a2.2 2.2 0 0 0 2.202-2.201 2.2 2.2 0 0 0-2.201-2.2h-4.231c-3.416 0-6.097-2.68-6.097-6.097V31.52c0-3.417 2.68-6.098 6.097-6.098h28.648l-21.96 31.186a2.25 2.25 0 0 0 .08 2.697l10.019 12.578c-4.314 11.585-8.63 23.171-12.943 34.756a2.25 2.25 0 0 0 3.95 2.074l3.048-4.355a2.2 2.2 0 0 0 .285.076h31.96c5.777 0 10.495-4.72 10.495-10.498V36.86c0-5.777-4.718-10.498-10.496-10.498h-4.762a2.2 2.2 0 0 0-2.2 2.2 2.2 2.2 0 0 0 2.2 2.201h4.762c3.416 0 6.097 2.681 6.097 6.097v57.077c0 3.416-2.68 6.097-6.097 6.097h-29.22c7.077-10.117 14.155-20.235 21.231-30.353a2.25 2.25 0 0 0 .024-2.545l-8.873-13.191 12.477-35.16a2.25 2.25 0 0 0-2.123-3.002zm2.781 41.736a2.25 2.25 0 0 0-2.25 2.25v11.26a2.25 2.25 0 0 0 2.25 2.25 2.25 2.25 0 0 0 2.25-2.25v-11.26a2.25 2.25 0 0 0-2.25-2.25z" transform="translate(-225.05 -15.783)"/>
</svg>
