<?xml version="1.0" encoding="UTF-8" standalone="no"?>
<!-- Created with Inkscape (http://www.inkscape.org/) -->

<svg
   width="64.080322mm"
   height="93.885826mm"
   viewBox="0 0 64.080322 93.885826"
   version="1.1"
   id="svg1"
   xml:space="preserve"
   xmlns="http://www.w3.org/2000/svg"
   xmlns:svg="http://www.w3.org/2000/svg"><defs
     id="defs1"><linearGradient
       id="swatch5"><stop
         style="stop-color:#ffffff;stop-opacity:1;"
         offset="0"
         id="stop5" /></linearGradient></defs><g
     id="layer1"
     transform="translate(-372.30082,-238.9138)"><path
       id="path9-6-2-8-3-0-7-8-8"
       style="color:#000000;fill:#111725;fill-opacity:1;stroke-linecap:round;stroke-linejoin:round;-inkscape-stroke:none"
       d="m 419.40079,238.91379 a 2.25023,2.25023 0 0 0 -1.83606,0.95291 c -1.02315,1.45295 -2.04642,2.90595 -3.06959,4.35891 a 2.2,2.2 0 0 0 -0.26665,-0.0718 h -31.4296 c -5.77777,0 -10.49807,4.72032 -10.49807,10.49807 v 57.07611 c 0,5.77772 4.72029,10.49808 10.49807,10.49806 h 4.23075 a 2.2,2.2 0 0 0 2.2009,-2.2009 2.2,2.2 0 0 0 -2.2009,-2.19934 h -4.23075 c -3.41627,1e-5 -6.0973,-2.68159 -6.0973,-6.09782 v -57.07611 c 0,-3.41626 2.68102,-6.0973 6.0973,-6.0973 h 28.64786 c -7.32013,10.39503 -14.64056,20.79032 -21.96041,31.18518 a 2.25023,2.25023 0 0 0 0.0801,2.69751 c 3.34002,4.19281 6.67952,8.38522 10.01955,12.57804 -4.31436,11.58514 -8.62904,23.17089 -12.9434,34.75601 a 2.25023,2.25023 0 0 0 3.95118,2.07377 c 1.0155,-1.45183 2.03133,-2.90345 3.04684,-4.35529 a 2.2,2.2 0 0 0 0.28526,0.0765 h 31.95929 c 5.77774,0 10.496,-4.72031 10.496,-10.49806 v -57.07662 c 0,-5.77775 -4.71826,-10.49807 -10.496,-10.49807 h -4.76199 a 2.2,2.2 0 0 0 -2.19934,2.19934 2.2,2.2 0 0 0 2.19934,2.20142 h 4.76199 c 3.41626,0 6.0973,2.68106 6.0973,6.09731 v 57.07662 c 0,3.41628 -2.68104,6.09729 -6.0973,6.09729 h -29.21992 c 7.07713,-10.11765 14.15431,-20.23535 21.23126,-30.35317 a 2.25023,2.25023 0 0 0 0.0238,-2.54507 l -8.87336,-13.19144 c 4.15917,-11.71986 8.31754,-23.44028 12.47676,-35.16014 a 2.25023,2.25023 0 0 0 -2.12287,-3.00188 z m 2.78122,41.73648 a 2.25,2.25 0 0 0 -2.24999,2.24999 v 11.25926 a 2.25,2.25 0 0 0 2.24999,2.25051 2.25,2.25 0 0 0 2.25,-2.25051 v -11.25926 a 2.25,2.25 0 0 0 -2.25,-2.24999 z" /></g></svg>
